grf.mot																		
version=1																		
nRows=7
nColumns=31
inDegrees=yes																		
endheader																		
time	ground_force_vx	ground_force_vy	ground_force_vz	ground_force_px	ground_force_py	ground_force_pz	1_ground_force_vx	1_ground_force_vy	1_ground_force_vz	1_ground_force_px	1_ground_force_py	1_ground_force_pz	ground_torque_x	ground_torque_y	ground_torque_z	1_ground_torque_x	1_ground_torque_y	1_ground_torque_z	apo_force_vx	apo_force_vy	apo_force_vz	apo_force_px	apo_force_py	apo_force_pz	1_apo_force_vx	1_apo_force_vy	1_apo_force_vz	1_apo_force_px	1_apo_force_py	1_apo_force_pz	
1.24460000000000	0.00000000000000	0.00000000000000	0.00000000000000	0.00000000000000	0.00000000000000	0.00000000000000	-106.18600000000001	932.13800000000003	89.63760000000001	-0.00024116900000	0.00000000000000	-0.10931700000000	0.00000000000000	0.00000000000000	0.00000000000000	0.00000000000000	8.65080000000000	0.00000000000000	33.33300000000000	5.06040000000000	0.00000000000000	0.00000000000000	-0.35000000000000	0.00000000000000	-29.30200000000000	-20.60100000000000	0.00000000000000	0.00000000000000	-0.35000000000000	0.00000000000000	
1.24960000000000	0.00000000000000	0.00000000000000	0.00000000000000	0.00000000000000	0.00000000000000	0.00000000000000	-96.75130000000000	914.47199999999998	87.84269999999999	-0.00896424000000	0.00000000000000	-0.11010500000000	0.00000000000000	0.00000000000000	0.00000000000000	0.00000000000000	8.24062000000000	0.00000000000000	33.94300000000000	5.90420000000000	0.00000000000000	0.00000000000000	-0.35000000000000	0.00000000000000	-29.85200000000000	-20.48500000000000	0.00000000000000	0.00000000000000	-0.35000000000000	0.00000000000000	
1.25460000000000	0.00000000000000	0.00000000000000	0.00000000000000	0.00000000000000	0.00000000000000	0.00000000000000	-87.45370000000000	895.24500000000000	85.86010000000000	-0.01699150000000	0.00000000000000	-0.11085100000000	0.00000000000000	0.00000000000000	0.00000000000000	0.00000000000000	7.82132000000000	0.00000000000000	34.64400000000000	6.79760000000000	0.00000000000000	0.00000000000000	-0.35000000000000	0.00000000000000	-30.55500000000000	-20.45100000000000	0.00000000000000	0.00000000000000	-0.35000000000000	0.00000000000000	
1.25960000000000	0.00000000000000	0.00000000000000	0.00000000000000	0.00000000000000	0.00000000000000	0.00000000000000	-78.38640000000000	874.68299999999999	83.73830000000000	-0.02432460000000	0.00000000000000	-0.11153800000000	0.00000000000000	0.00000000000000	0.00000000000000	0.00000000000000	7.40080000000000	0.00000000000000	35.42300000000000	7.74370000000000	0.00000000000000	0.00000000000000	-0.35000000000000	0.00000000000000	-31.40100000000000	-20.48600000000000	0.00000000000000	0.00000000000000	-0.35000000000000	0.00000000000000	
1.26460000000000	0.00000000000000	0.00000000000000	0.00000000000000	0.00000000000000	0.00000000000000	0.00000000000000	-69.63070000000000	853.01900000000001	81.52190000000000	-0.03098860000000	0.00000000000000	-0.11215100000000	0.00000000000000	0.00000000000000	0.00000000000000	0.00000000000000	6.98618000000000	0.00000000000000	36.25200000000000	8.74090000000000	0.00000000000000	0.00000000000000	-0.35000000000000	0.00000000000000	-32.36800000000000	-20.57000000000000	0.00000000000000	0.00000000000000	-0.35000000000000	0.00000000000000	
1.26960000000000	0.00000000000000	0.00000000000000	0.00000000000000	0.00000000000000	0.00000000000000	0.00000000000000	-61.25550000000000	830.48400000000004	79.25109999999999	-0.03702900000000	0.00000000000000	-0.11267900000000	0.00000000000000	0.00000000000000	0.00000000000000	0.00000000000000	6.58367000000000	0.00000000000000	37.08700000000000	9.78060000000000	0.00000000000000	0.00000000000000	-0.35000000000000	0.00000000000000	-33.41400000000000	-20.67300000000000	0.00000000000000	0.00000000000000	-0.35000000000000	0.00000000000000	
1.27460000000000	0.00000000000000	0.00000000000000	0.00000000000000	0.00000000000000	0.00000000000000	0.00000000000000	-53.31700000000000	807.30799999999999	76.96040000000001	-0.04251010000000	0.00000000000000	-0.11311600000000	0.00000000000000	0.00000000000000	0.00000000000000	0.00000000000000	6.19849000000000	0.00000000000000	37.87000000000000	10.84600000000000	0.00000000000000	0.00000000000000	-0.35000000000000	0.00000000000000	-34.48400000000000	-20.75800000000000	0.00000000000000	0.00000000000000	-0.35000000000000	0.00000000000000	
